<?xml version="1.0"?>
<svg xmlns="http://www.w3.org/2000/svg" xmlns:xlink="http://www.w3.org/1999/xlink" xmlns:svgjs="http://svgjs.com/svgjs" version="1.1" width="512" height="512" x="0" y="0" viewBox="0 0 160.16 160.16" style="enable-background:new 0 0 512 512" xml:space="preserve"><g>
<g xmlns="http://www.w3.org/2000/svg">
	<g>
		<path d="M80.082,0C35.928,0,0.004,35.924,0.004,80.083v72.476c0,4.203,3.396,7.602,7.599,7.602c4.203,0,7.604-3.398,7.604-7.602    V80.083c0-35.771,29.099-64.876,64.869-64.876c35.771,0,64.877,29.105,64.877,64.876v72.476c0,4.203,3.399,7.602,7.602,7.602    c4.201,0,7.602-3.398,7.602-7.602V80.083C160.161,35.924,124.236,0,80.082,0z" fill="#000000" data-original="#000000" style=""/>
		<path d="M113.384,120.706l-24.997,7.503l24.898,7.48l10.058-3.026c5.501-1.647,7.737-5.669,4.979-8.964    C125.582,120.395,118.894,119.065,113.384,120.706z" fill="#000000" data-original="#000000" style=""/>
		<path d="M36.823,143.695c-5.512,1.653-7.742,5.669-4.991,8.979c1.954,2.336,5.883,3.684,9.979,3.684    c1.663,0,3.383-0.22,4.966-0.703l24.996-7.495l-24.9-7.485L36.823,143.695z" fill="#000000" data-original="#000000" style=""/>
		<path d="M123.343,143.695l-76.562-22.989c-5.502-1.641-12.184-0.312-14.943,2.993c-2.753,3.295-0.528,7.316,4.989,8.964    l76.556,22.992c1.589,0.483,3.307,0.703,4.969,0.703c4.095,0,8.032-1.348,9.982-3.684    C131.081,149.353,128.848,145.349,123.343,143.695z" fill="#000000" data-original="#000000" style=""/>
		<path d="M68.528,53.365c-3.042,17.191-13.067,17.579-17.336,32.447c-3.453,12.016,0.128,20.858,8.493,30.313    c-2.919-14.28,11.162-20.651,11.751-34.375c5.805,7.728,13.351,17.379,10.442,28.203c8.725-8.7,5.808-28.389,2.036-37.85    c16.691,7.519,6.092,38.232,19.296,42.484c-2.181-6.812,9.254-14.068,6.694-30.518c-1.961-12.527-15.821-33.48-27.744-45.58    C83.187,54.728,72.014,80.22,68.528,53.365z" fill="#000000" data-original="#000000" style=""/>
	</g>
</g>
<g xmlns="http://www.w3.org/2000/svg">
</g>
<g xmlns="http://www.w3.org/2000/svg">
</g>
<g xmlns="http://www.w3.org/2000/svg">
</g>
<g xmlns="http://www.w3.org/2000/svg">
</g>
<g xmlns="http://www.w3.org/2000/svg">
</g>
<g xmlns="http://www.w3.org/2000/svg">
</g>
<g xmlns="http://www.w3.org/2000/svg">
</g>
<g xmlns="http://www.w3.org/2000/svg">
</g>
<g xmlns="http://www.w3.org/2000/svg">
</g>
<g xmlns="http://www.w3.org/2000/svg">
</g>
<g xmlns="http://www.w3.org/2000/svg">
</g>
<g xmlns="http://www.w3.org/2000/svg">
</g>
<g xmlns="http://www.w3.org/2000/svg">
</g>
<g xmlns="http://www.w3.org/2000/svg">
</g>
<g xmlns="http://www.w3.org/2000/svg">
</g>
</g></svg>
