<svg id="Capa_1" enable-background="new 0 0 512.001 512.001" height="512" viewBox="0 0 512.001 512.001" width="512" xmlns="http://www.w3.org/2000/svg"><g><g><path d="m370.16 402.158c3.883 3.883 3.694 10.203-.365 13.902-.742.677-1.489 1.348-2.241 2.014-38.978 34.549-90.51 55.253-146.887 54.405-118.015-1.777-213.306-98.71-213.167-216.738.141-119.451 97.018-216.243 216.503-216.243 116.223 0 211.057 91.579 216.276 206.513.247 5.446-4.124 9.99-9.575 9.99-57.587 0-145.697 0-185.674 0-7.762 0-11.643 9.384-6.154 14.873z" fill="#d77f4a"/><path d="m224.003 39.498c-4.759 0-9.477.171-14.159.473 109.662 7.096 197.083 95.821 202.089 206.04.247 5.446-4.124 9.99-9.575 9.99h28.346c5.451 0 9.823-4.544 9.575-9.99-5.22-114.933-100.053-206.513-216.276-206.513z" fill="#c86d36"/><path d="m245.03 256.001h158.67c0-99.244-80.453-179.697-179.697-179.697s-179.697 80.453-179.697 179.697 80.453 179.697 179.697 179.697c45.71 0 87.434-17.067 119.147-45.177 2.656-2.354 5.24-4.789 7.752-7.294l.166.166c.055-.055.107-.111.162-.166l-112.354-112.353c-5.489-5.488-1.608-14.873 6.154-14.873z" fill="#fec165"/><circle cx="253.604" cy="125.377" fill="#e94444" r="23.939"/><path d="m494.915 281.093c-57.587 0-145.697 0-185.674 0-7.762 0-11.643 9.384-6.154 14.873l131.283 131.282c3.848 3.848 10.151 3.748 13.819-.273 33.022-36.191 53.927-83.627 56.301-135.894.247-5.445-4.124-9.988-9.575-9.988z" fill="#d77f4a"/><path d="m309.243 281.092c-7.762 0-11.644 9.384-6.156 14.873l111.992 111.992c.011-.011.023-.022.034-.033l.166.166c32.504-32.504 52.613-77.403 52.631-126.998-55.345.001-124.542.001-158.667 0z" fill="#fec165"/><circle cx="406.682" cy="326.053" fill="#e94444" r="22.468"/><circle cx="271.786" cy="220.709" fill="#9e5528" r="13.5"/><circle cx="214.122" cy="188.27" fill="#ee6161" r="13"/><g fill="#e94444"><circle cx="131.625" cy="180.493" r="23.523"/><circle cx="158.744" cy="256.001" r="23.523"/><circle cx="126.045" cy="332.941" r="23.523"/><circle cx="259.589" cy="373.766" r="23.523"/></g><circle cx="215.574" cy="309.418" fill="#ee6161" r="13"/><circle cx="84.832" cy="256.001" fill="#9e5528" r="13"/><circle cx="179.621" cy="373.766" fill="#9e5528" r="13"/><circle cx="170.941" cy="126.187" fill="#9e5528" r="13"/><g fill="#fdb441"><path d="m336.583 368.585-14.028 14.643c-2.512 2.506-5.096 4.94-7.752 7.294-28.412 25.184-64.864 41.494-105.015 44.618 4.69.367 9.43.558 14.214.558 50.252 0 96.09-21.048 127.061-52.636z"/><path d="m224.003 76.304c-4.77 0-9.496.19-14.173.555 92.618 7.227 165.524 84.669 165.524 179.142h28.346c0-99.244-80.453-179.697-179.697-179.697z"/></g><path d="m494.915 281.093c-4.472 0-9.129 0-13.933 0 .59 1.315.901 2.779.831 4.32-2.34 51.532-22.704 98.361-54.925 134.353l7.482 7.482c3.848 3.848 10.151 3.748 13.819-.273 33.022-36.191 53.927-83.627 56.301-135.894.247-5.445-4.124-9.988-9.575-9.988z" fill="#c86d36"/><path d="m445.133 281.093c-1.351 43.063-17.849 82.302-44.348 112.571l14.294 14.294c.011-.011.023-.022.034-.033l.166.166c32.504-32.504 52.613-77.403 52.631-126.998-7.383 0-15.017 0-22.777 0z" fill="#fdb441"/><path d="m336.583 368.585-14.028 14.643c-2.512 2.506-5.096 4.94-7.752 7.294-28.412 25.184-64.864 41.494-105.015 44.618 4.69.367 9.43.558 14.214.558 50.252 0 96.09-21.048 127.061-52.636z" fill="#fdb441"/><path d="m224.003 76.304c-4.77 0-9.496.19-14.173.555 92.618 7.227 165.524 84.669 165.524 179.142h28.346c0-99.244-80.453-179.697-179.697-179.697z" fill="#fdb441"/><path d="m350.902 383.228c-.054.054-.11.105-.164.159" fill="#c86d36"/><path d="m370.16 402.158c3.883 3.883 3.694 10.203-.365 13.902-.742.677-1.49 1.348-2.241 2.014-38.979 34.549-90.51 55.253-146.887 54.405-3.664-.055-7.307-.203-10.925-.439 49.536-3.182 94.541-23.009 129.466-53.965.752-.666 1.499-1.338 2.241-2.014l20.22-22.393z" fill="#c86d36"/><circle cx="337.725" cy="188.27" fill="#e94444" r="23.523"/></g><g><path d="m356.533 377.925c-.001-.001-112.355-112.355-112.357-112.358-.81-.813-.181-2.066.854-2.066h185.674c9.421 0 17.086-7.649 17.086-17.05 0-.262-.007-.524-.019-.78-5.372-118.318-102.888-213.673-223.767-213.673-.006 0-.011 0-.016 0-7.162 0-14.391.343-21.485 1.019-4.124.393-7.148 4.054-6.755 8.178s4.071 7.152 8.177 6.755c6.624-.631 13.373-.951 20.063-.951h.016c111.998 0 203.707 87.566 208.787 199.453 0 1.13-.936 2.05-2.086 2.05h-19.667c-3.952-99.756-86.326-179.697-187.034-179.697-103.221 0-187.197 83.977-187.197 187.197s83.977 187.197 187.197 187.197c47.05 0 92.338-17.646 126.953-49.637l13.9 13.9c.868.868.774 2.248-.114 3.057-.716.653-1.437 1.301-2.162 1.944-39.028 34.593-89.536 53.313-141.799 52.518-113.469-1.709-205.782-95.458-205.782-208.983v-.249c.111-94.802 64.143-177.825 155.711-201.898 4.006-1.053 6.399-5.154 5.347-9.16-1.054-4.006-5.149-6.399-9.161-5.347-98.147 25.803-166.778 114.785-166.897 216.397v.257c0 122.107 98.44 222.142 220.555 223.98 56.019.831 111.321-19.213 154.291-58.374 7.148-6.512 7.594-17.771.617-24.75zm-132.53 50.274c-94.95 0-172.197-77.248-172.197-172.197s77.247-172.198 172.197-172.198c92.435 0 168.093 73.216 172.036 164.697-161.453 0-151.961-.155-154.371.356-12.386 2.606-17.302 18.114-8.096 27.32l19.374 19.375 87.399 87.399c-31.466 28.888-72.875 45.248-116.342 45.248z"/><path d="m253.604 156.816c17.335 0 31.438-14.104 31.438-31.439s-14.104-31.438-31.438-31.438-31.438 14.103-31.438 31.438 14.104 31.439 31.438 31.439zm0-47.878c9.064 0 16.438 7.374 16.438 16.438s-7.374 16.439-16.438 16.439-16.438-7.375-16.438-16.439 7.374-16.438 16.438-16.438z"/><path d="m337.725 219.294c17.106 0 31.023-13.917 31.023-31.023s-13.917-31.023-31.023-31.023-31.023 13.917-31.023 31.023 13.916 31.023 31.023 31.023zm0-47.047c8.835 0 16.023 7.188 16.023 16.023s-7.188 16.023-16.023 16.023-16.023-7.188-16.023-16.023 7.188-16.023 16.023-16.023z"/><path d="m494.915 273.593c-198.238 0-187.246-.712-191.973 1.277-10.398 4.376-13.44 18.118-5.159 26.399 4.575 4.575 123.955 123.955 131.282 131.283 6.931 6.93 18.167 6.6 24.664-.521 9.942-10.896 18.84-22.815 26.443-35.424 2.139-3.547.997-8.157-2.55-10.295-3.547-2.14-8.156-.998-10.296 2.549-7.096 11.767-15.398 22.89-24.678 33.06-.8.876-2.165.836-2.977.024l-13.933-13.933c30.37-32.828 47.742-74.733 49.508-119.419h19.668c1.15 0 2.086.92 2.083 2.149-1.064 23.424-5.991 46.272-14.643 67.91-1.538 3.846.333 8.211 4.18 9.749s8.211-.333 9.748-4.179c9.276-23.2 14.559-47.693 15.699-72.79.012-.264.019-.526.019-.788.001-9.403-7.664-17.051-17.085-17.051zm-79.781 123.813-106.743-106.744c-.001-.001-.003-.003-.004-.004-.406-.407-.502-.882-.185-1.467.215-.406.575-.599 1.04-.599h151.006c-1.747 40.684-17.562 78.83-45.114 108.814z"/><path d="m406.682 356.021c16.524 0 29.969-13.444 29.969-29.969 0-16.524-13.444-29.968-29.969-29.968s-29.969 13.444-29.969 29.968c0 16.525 13.444 29.969 29.969 29.969zm0-44.937c8.254 0 14.969 6.715 14.969 14.968 0 8.254-6.715 14.969-14.969 14.969s-14.969-6.715-14.969-14.969c0-8.253 6.715-14.968 14.969-14.968z"/><path d="m250.786 220.709c0 11.58 9.421 21 21 21s21-9.42 21-21-9.421-21-21-21-21 9.42-21 21zm27 0c0 3.309-2.691 6-6 6s-6-2.691-6-6 2.691-6 6-6 6 2.691 6 6z"/><path d="m214.122 208.77c11.304 0 20.5-9.196 20.5-20.5s-9.196-20.5-20.5-20.5-20.5 9.196-20.5 20.5 9.196 20.5 20.5 20.5zm0-26c3.033 0 5.5 2.467 5.5 5.5s-2.467 5.5-5.5 5.5-5.5-2.467-5.5-5.5 2.467-5.5 5.5-5.5z"/><path d="m131.625 211.517c17.106 0 31.023-13.917 31.023-31.023s-13.917-31.023-31.023-31.023-31.023 13.917-31.023 31.023 13.917 31.023 31.023 31.023zm0-47.047c8.835 0 16.023 7.188 16.023 16.023s-7.188 16.023-16.023 16.023-16.023-7.188-16.023-16.023 7.188-16.023 16.023-16.023z"/><path d="m189.768 256.001c0-17.106-13.917-31.023-31.023-31.023s-31.023 13.917-31.023 31.023 13.917 31.023 31.023 31.023 31.023-13.916 31.023-31.023zm-31.024 16.024c-8.835 0-16.023-7.188-16.023-16.023s7.188-16.023 16.023-16.023 16.023 7.188 16.023 16.023-7.188 16.023-16.023 16.023z"/><path d="m126.045 301.918c-17.106 0-31.023 13.917-31.023 31.023s13.917 31.023 31.023 31.023 31.023-13.917 31.023-31.023-13.917-31.023-31.023-31.023zm0 47.047c-8.835 0-16.023-7.188-16.023-16.023s7.188-16.023 16.023-16.023 16.023 7.188 16.023 16.023-7.188 16.023-16.023 16.023z"/><path d="m228.565 373.766c0 17.106 13.917 31.023 31.023 31.023s31.023-13.917 31.023-31.023-13.917-31.023-31.023-31.023-31.023 13.916-31.023 31.023zm31.024-16.024c8.835 0 16.023 7.188 16.023 16.023s-7.188 16.023-16.023 16.023-16.023-7.188-16.023-16.023 7.188-16.023 16.023-16.023z"/><path d="m236.074 309.418c0-11.304-9.196-20.5-20.5-20.5s-20.5 9.196-20.5 20.5 9.196 20.5 20.5 20.5 20.5-9.197 20.5-20.5zm-20.5 5.5c-3.033 0-5.5-2.467-5.5-5.5s2.467-5.5 5.5-5.5 5.5 2.467 5.5 5.5-2.467 5.5-5.5 5.5z"/><path d="m105.332 256.001c0-11.304-9.196-20.5-20.5-20.5s-20.5 9.196-20.5 20.5 9.196 20.5 20.5 20.5 20.5-9.196 20.5-20.5zm-20.5 5.5c-3.033 0-5.5-2.467-5.5-5.5s2.467-5.5 5.5-5.5 5.5 2.467 5.5 5.5-2.467 5.5-5.5 5.5z"/><path d="m179.621 353.266c-11.304 0-20.5 9.196-20.5 20.5s9.196 20.5 20.5 20.5 20.5-9.196 20.5-20.5-9.196-20.5-20.5-20.5zm0 26c-3.033 0-5.5-2.467-5.5-5.5s2.467-5.5 5.5-5.5 5.5 2.467 5.5 5.5-2.467 5.5-5.5 5.5z"/><path d="m170.941 146.687c11.304 0 20.5-9.196 20.5-20.5s-9.196-20.5-20.5-20.5-20.5 9.196-20.5 20.5 9.197 20.5 20.5 20.5zm0-26c3.033 0 5.5 2.467 5.5 5.5s-2.467 5.5-5.5 5.5-5.5-2.467-5.5-5.5 2.467-5.5 5.5-5.5z"/></g></g></svg>